<?xml version="1.0" standalone="no"?>
<!DOCTYPE svg PUBLIC "-//W3C//DTD SVG 20010904//EN"
 "http://www.w3.org/TR/2001/REC-SVG-20010904/DTD/svg10.dtd">
<svg version="1.0" xmlns="http://www.w3.org/2000/svg"
 width="710.000000pt" height="710.000000pt" viewBox="0 0 710.000000 710.000000"
 preserveAspectRatio="xMidYMid meet">
<metadata>
Created by potrace 1.11, written by Peter Selinger 2001-2013
</metadata>
<g transform="translate(0.000000,710.000000) scale(0.100000,-0.100000)"
fill="#000000" stroke="none">
<path d="M3048 6055 c-2 -2 -33 -5 -70 -9 -82 -7 -139 -20 -241 -54 -58 -19
-79 -31 -83 -47 -3 -12 16 -71 47 -145 122 -296 139 -375 134 -625 -4 -202 -4
-201 -25 -285 -32 -134 -130 -308 -232 -412 -97 -100 -269 -197 -428 -242
-249 -70 -605 -40 -865 74 -105 46 -205 81 -215 75 -15 -9 -38 -68 -61 -156
-22 -85 -26 -110 -35 -220 l-6 -75 93 -44 c161 -75 370 -141 493 -156 22 -3
47 -7 54 -9 24 -8 168 -19 252 -19 428 0 793 150 1095 449 136 134 248 323
320 540 59 174 69 248 70 465 0 343 -7 376 -173 748 -33 73 -62 135 -65 138
-6 6 -55 13 -59 9z"/>
<path d="M3985 6023 c-3 -13 -22 -59 -42 -101 -88 -189 -103 -224 -127 -302
-52 -163 -60 -222 -61 -415 0 -228 15 -337 71 -522 153 -506 630 -896 1194
-976 134 -19 374 -15 540 9 148 22 518 159 559 207 8 11 11 41 7 99 -6 105
-12 137 -43 223 -14 39 -29 84 -34 102 l-9 31 -48 -13 c-26 -7 -108 -37 -182
-67 -150 -60 -223 -81 -353 -102 -98 -15 -314 -14 -392 3 -27 6 -61 13 -75 16
-64 13 -163 51 -237 90 -237 125 -394 320 -460 573 -47 179 -40 475 16 662 16
55 91 257 120 325 17 39 31 76 31 80 0 3 -8 5 -18 5 -10 0 -22 4 -28 9 -18 17
-199 69 -264 76 -160 16 -158 16 -165 -12z"/>
<path d="M2030 5463 c-112 -13 -207 -59 -283 -139 -43 -45 -99 -148 -117 -217
-8 -29 -11 -72 -7 -110 23 -250 276 -360 502 -219 65 41 141 126 177 199 31
64 33 73 33 178 0 95 -3 116 -23 153 -26 48 -73 97 -117 120 -36 19 -130 39
-165 35z"/>
<path d="M4943 5402 c-120 -43 -186 -132 -192 -257 -7 -173 93 -346 243 -420
146 -72 280 -65 375 21 183 165 100 510 -153 634 -84 41 -194 50 -273 22z"/>
<path d="M1717 3404 c-1 -1 -34 -4 -74 -8 -97 -8 -244 -41 -351 -77 -48 -17
-97 -33 -109 -36 -13 -3 -23 -9 -23 -14 0 -5 -5 -9 -12 -9 -6 0 -43 -20 -82
-44 -39 -23 -79 -46 -90 -50 -17 -6 -18 -14 -12 -84 7 -82 33 -216 46 -242 4
-8 11 -33 15 -55 5 -22 9 -43 10 -47 2 -5 3 -14 4 -22 1 -18 13 -15 181 49
203 76 253 91 400 120 243 48 498 10 722 -107 273 -142 413 -344 474 -683 10
-56 10 -297 1 -370 -15 -115 -61 -269 -122 -410 -17 -39 -52 -135 -59 -160 -5
-18 4 -24 62 -47 76 -30 212 -56 319 -61 59 -3 75 -1 88 13 8 9 15 20 15 24 0
5 19 49 41 100 76 168 136 371 164 554 12 81 13 358 1 422 -31 168 -62 265
-123 385 -150 300 -379 543 -644 682 -133 70 -289 124 -434 148 -16 3 -41 7
-55 10 -67 12 -343 27 -353 19z"/>
<path d="M5197 3405 c-1 -2 -40 -5 -87 -9 -121 -9 -143 -13 -255 -42 -190 -49
-371 -135 -532 -255 -231 -171 -383 -380 -482 -663 -41 -116 -48 -145 -70
-281 -10 -61 -7 -442 4 -505 3 -19 8 -44 10 -55 11 -66 46 -162 108 -295 19
-41 47 -104 62 -140 45 -108 44 -108 117 -104 35 2 77 6 93 9 17 2 48 7 70 11
53 8 185 52 209 69 18 14 18 16 2 67 -9 29 -21 62 -26 73 -79 172 -133 346
-144 465 -17 182 -17 212 -1 326 36 247 109 404 260 557 221 224 587 322 963
257 150 -25 222 -47 384 -116 136 -58 163 -64 171 -36 3 9 15 44 27 77 27 75
48 184 56 283 l6 78 -63 28 c-125 56 -215 93 -276 114 -82 28 -287 69 -388 77
-88 7 -214 13 -218 10z"/>
<path d="M2010 2585 c-141 -37 -212 -126 -217 -271 -4 -135 34 -229 133 -328
42 -42 88 -77 132 -98 60 -30 75 -33 152 -33 72 1 93 5 136 27 173 90 213 299
97 497 -55 94 -145 170 -236 200 -50 17 -146 20 -197 6z"/>
<path d="M5080 2526 c-124 -26 -244 -126 -308 -254 -35 -72 -37 -81 -37 -171
0 -77 4 -105 21 -141 48 -103 154 -171 266 -171 80 -1 99 4 173 41 90 45 172
130 212 220 31 71 36 91 39 162 4 98 -16 164 -68 223 -72 82 -181 115 -298 91z"/>
</g>
</svg>
